<svg width="733" height="342" viewBox="0 0 733 342" fill="none" xmlns="http://www.w3.org/2000/svg">
<g clip-path="url(#clip0_818_364)">
<path d="M584.863 87.6123C586.121 89.8221 585.612 92.0242 583.512 93.4582C586.892 93.2184 590.706 94.0998 593.638 95.7983C592.38 93.5885 592.889 91.3863 594.989 89.9524C591.61 90.1924 587.795 89.3108 584.863 87.6123Z" fill="#0969DA" fill-opacity="0.46"/>
<path d="M693.179 181.028C694.912 182.889 694.925 185.149 693.212 187.028C696.445 186.016 700.36 185.994 703.605 186.972C701.872 185.111 701.859 182.851 703.572 180.972C700.339 181.984 696.424 182.005 693.179 181.028Z" fill="#8C50FF" fill-opacity="0.56"/>
<path d="M698.763 64.6428C699.529 67.0676 698.569 69.1136 696.214 70.0744C699.569 70.55 703.113 72.2133 705.623 74.4899C704.857 72.0651 705.818 70.0191 708.172 69.0583C704.817 68.5829 701.273 66.9194 698.763 64.6428Z" fill="#0969DA" fill-opacity="0.44"/>
<circle r="324.021" transform="matrix(0.977607 0.210438 -0.671104 0.741363 386.041 387.88)" stroke="#8C50FF" stroke-opacity="0.6" stroke-dasharray="16 16"/>
<circle r="324.021" transform="matrix(0.977607 0.210438 -0.671104 0.741363 615.041 258.88)" stroke="#FF5D49" stroke-opacity="0.31" stroke-dasharray="16 16"/>
<circle r="324.021" transform="matrix(0.977607 0.210438 -0.671104 0.741363 641.041 315.88)" stroke="#0969DA" stroke-opacity="0.39" stroke-dasharray="16 16"/>
<g filter="url(#filter0_d_818_364)">
<g clip-path="url(#clip1_818_364)">
<rect width="163.296" height="163.296" rx="5" transform="matrix(0.866044 0.499967 -0.866044 0.499967 527.422 68)" fill="white"/>
<path opacity="0.7" d="M478.134 152.159L488.212 146.341L494.766 150.125L493.236 151.008L488.507 148.278L485.771 149.858L490.161 152.392L488.63 153.275L484.241 150.741L481.49 152.329L486.259 155.082L484.728 155.965L478.134 152.159ZM495.487 153.45L494.223 155.941L498.563 155.225L500.447 156.313L494.39 157.18L492.929 160.699L491.054 159.617L492.176 157.123L487.87 157.779L485.981 156.688L492.063 155.836L493.598 152.359L495.487 153.45ZM494.267 161.472L501.825 157.109L503.606 158.137L496.048 162.5L494.267 161.472ZM503.793 157.006C503.511 156.843 503.362 156.649 503.346 156.424C503.333 156.197 503.459 156.006 503.725 155.853C503.994 155.698 504.323 155.625 504.714 155.634C505.107 155.642 505.445 155.727 505.727 155.89C506.013 156.055 506.16 156.25 506.17 156.475C506.187 156.7 506.06 156.891 505.791 157.046C505.526 157.199 505.196 157.272 504.802 157.265C504.415 157.257 504.079 157.171 503.793 157.006ZM509.414 163.796L507.613 162.961C507.731 162.84 507.805 162.705 507.835 162.555C507.867 162.407 507.833 162.253 507.731 162.092C507.63 161.931 507.441 161.771 507.165 161.612C506.795 161.398 506.403 161.264 505.989 161.211C505.579 161.16 505.248 161.209 504.995 161.359C504.772 161.484 504.674 161.634 504.7 161.808C504.73 161.984 504.892 162.208 505.187 162.481L506.201 163.384C506.762 163.886 507.049 164.334 507.062 164.728C507.078 165.124 506.818 165.479 506.28 165.793C505.801 166.066 505.241 166.228 504.602 166.279C503.969 166.33 503.308 166.274 502.619 166.112C501.93 165.949 501.27 165.685 500.641 165.322C499.715 164.788 499.164 164.246 498.987 163.697C498.813 163.146 499.02 162.638 499.607 162.174L501.511 163.08C501.249 163.323 501.159 163.568 501.241 163.816C501.323 164.064 501.569 164.307 501.979 164.543C502.402 164.788 502.829 164.934 503.258 164.981C503.691 165.03 504.036 164.981 504.292 164.833C504.508 164.708 504.603 164.557 504.577 164.379C504.554 164.203 504.407 163.992 504.134 163.748L503.116 162.848C502.542 162.342 502.259 161.885 502.269 161.478C502.282 161.069 502.566 160.707 503.121 160.39C503.583 160.12 504.113 159.959 504.71 159.91C505.314 159.861 505.938 159.915 506.585 160.072C507.238 160.229 507.866 160.482 508.469 160.831C509.355 161.342 509.864 161.853 509.995 162.365C510.129 162.878 509.936 163.355 509.414 163.796ZM516.817 165.764L515.44 166.559L511.095 164.051L512.472 163.255L516.817 165.764ZM515.356 162.829L517.137 163.857L510.042 167.954C509.802 168.092 509.654 168.219 509.599 168.334C509.549 168.45 509.563 168.556 509.638 168.653C509.713 168.749 509.825 168.84 509.973 168.925C510.084 168.99 510.194 169.044 510.302 169.087C510.414 169.133 510.501 169.166 510.563 169.187L509.471 170.164C509.343 170.128 509.171 170.07 508.954 169.991C508.741 169.913 508.505 169.803 508.245 169.661C507.786 169.411 507.452 169.14 507.242 168.849C507.035 168.555 506.984 168.257 507.089 167.954C507.197 167.653 507.489 167.367 507.965 167.096L515.356 162.829ZM510.749 170.987L518.307 166.624L520.088 167.652L512.53 172.015L510.749 170.987ZM520.275 166.521C519.993 166.358 519.844 166.164 519.828 165.939C519.814 165.712 519.941 165.521 520.206 165.368C520.475 165.213 520.805 165.14 521.196 165.149C521.589 165.157 521.927 165.242 522.209 165.405C522.495 165.57 522.642 165.765 522.652 165.99C522.668 166.215 522.542 166.406 522.273 166.561C522.007 166.714 521.678 166.787 521.284 166.78C520.897 166.772 520.561 166.686 520.275 166.521ZM520.572 171.544L516.143 174.101L514.362 173.073L521.92 168.709L523.623 169.692L522.338 170.434L522.427 170.485C523.024 170.341 523.637 170.307 524.267 170.383C524.9 170.46 525.499 170.662 526.063 170.988C526.585 171.289 526.928 171.615 527.092 171.968C527.259 172.322 527.238 172.683 527.028 173.05C526.821 173.419 526.414 173.777 525.807 174.124L520.995 176.902L519.214 175.874L523.751 173.255C524.256 172.963 524.52 172.659 524.543 172.343C524.569 172.028 524.353 171.739 523.893 171.473C523.582 171.293 523.236 171.173 522.855 171.113C522.481 171.052 522.097 171.056 521.704 171.124C521.313 171.194 520.936 171.334 520.572 171.544ZM523.101 181.572C522.461 181.203 521.999 180.835 521.713 180.47C521.425 180.106 521.285 179.761 521.295 179.433C521.305 179.105 521.431 178.809 521.674 178.544L523.667 179.246C523.592 179.373 523.551 179.517 523.544 179.68C523.534 179.845 523.598 180.022 523.736 180.211C523.874 180.405 524.121 180.604 524.479 180.811C524.984 181.103 525.525 181.273 526.103 181.322C526.677 181.373 527.243 181.238 527.8 180.916L529.232 180.089L529.144 180.038C528.868 180.091 528.545 180.122 528.174 180.132C527.807 180.143 527.413 180.104 526.993 180.013C526.577 179.924 526.152 179.754 525.719 179.504C525.138 179.169 524.748 178.786 524.548 178.356C524.354 177.927 524.39 177.474 524.656 176.999C524.928 176.523 525.476 176.048 526.3 175.573C527.13 175.093 527.968 174.769 528.814 174.598C529.667 174.428 530.477 174.394 531.245 174.496C532.016 174.596 532.692 174.814 533.272 175.149C533.715 175.405 534.004 175.659 534.138 175.911C534.279 176.162 534.33 176.398 534.291 176.618C534.255 176.836 534.189 177.023 534.094 177.18L534.192 177.237L535.442 176.516L537.199 177.53L529.518 181.964C528.871 182.337 528.183 182.557 527.451 182.623C526.719 182.69 525.981 182.629 525.237 182.441C524.492 182.254 523.78 181.964 523.101 181.572ZM527.613 178.984C527.991 179.202 528.404 179.335 528.853 179.382C529.303 179.429 529.769 179.393 530.251 179.274C530.733 179.155 531.215 178.956 531.698 178.677C532.173 178.403 532.521 178.123 532.741 177.837C532.964 177.553 533.041 177.277 532.972 177.01C532.91 176.743 532.687 176.499 532.303 176.277C531.906 176.048 531.471 175.916 530.999 175.882C530.526 175.848 530.043 175.896 529.547 176.027C529.055 176.156 528.581 176.352 528.125 176.615C527.663 176.882 527.325 177.155 527.111 177.433C526.905 177.712 526.838 177.983 526.91 178.249C526.988 178.514 527.223 178.759 527.613 178.984ZM447.895 154.7L444.481 152.729L454.558 146.911L458.042 148.922C459.043 149.5 459.7 150.113 460.015 150.76C460.337 151.408 460.315 152.06 459.951 152.718C459.587 153.375 458.882 154.005 457.835 154.609C456.786 155.215 455.688 155.624 454.543 155.834C453.402 156.046 452.263 156.057 451.128 155.868C449.997 155.68 448.919 155.291 447.895 154.7ZM447.886 152.871L449.386 153.737C450.088 154.143 450.802 154.407 451.527 154.53C452.255 154.651 452.993 154.632 453.741 154.473C454.493 154.312 455.254 154.009 456.024 153.564C456.795 153.119 457.317 152.682 457.589 152.252C457.865 151.82 457.898 151.398 457.688 150.985C457.484 150.572 457.041 150.168 456.359 149.775L454.804 148.877L447.886 152.871ZM456.465 159.824C455.986 159.547 455.64 159.249 455.427 158.929C455.22 158.609 455.174 158.287 455.289 157.963C455.407 157.641 455.714 157.337 456.209 157.051C456.635 156.805 457.067 156.647 457.503 156.577C457.939 156.507 458.377 156.502 458.817 156.562C459.257 156.623 459.69 156.727 460.116 156.875C460.549 157.023 460.969 157.191 461.376 157.381C461.865 157.61 462.265 157.793 462.576 157.932C462.891 158.068 463.15 158.149 463.354 158.176C463.564 158.202 463.754 158.167 463.925 158.068L463.954 158.051C464.325 157.837 464.502 157.608 464.486 157.364C464.469 157.119 464.254 156.878 463.841 156.639C463.405 156.387 462.964 156.242 462.517 156.205C462.074 156.169 461.679 156.2 461.331 156.298L459.904 155.202C460.495 155.012 461.095 154.916 461.705 154.912C462.319 154.906 462.921 154.985 463.511 155.148C464.105 155.309 464.666 155.542 465.194 155.847C465.558 156.057 465.878 156.291 466.154 156.548C466.429 156.806 466.618 157.078 466.72 157.364C466.825 157.648 466.8 157.938 466.646 158.236C466.495 158.535 466.169 158.829 465.667 159.119L460.608 162.039L458.896 161.051L459.934 160.451L459.875 160.417C459.557 160.476 459.207 160.502 458.827 160.494C458.453 160.486 458.062 160.43 457.656 160.324C457.255 160.218 456.859 160.051 456.465 159.824ZM458.236 159.335C458.594 159.541 458.974 159.68 459.378 159.75C459.785 159.818 460.177 159.825 460.554 159.77C460.935 159.717 461.264 159.61 461.543 159.449L462.434 158.934C462.332 158.929 462.194 158.898 462.02 158.844C461.85 158.791 461.668 158.725 461.474 158.648C461.281 158.57 461.092 158.491 460.908 158.412C460.725 158.332 460.565 158.263 460.431 158.204C460.129 158.072 459.832 157.969 459.54 157.895C459.248 157.821 458.968 157.792 458.699 157.807C458.433 157.82 458.185 157.893 457.956 158.025C457.628 158.215 457.5 158.427 457.572 158.662C457.644 158.897 457.866 159.121 458.236 159.335ZM473.732 160.889L472.354 161.684L468.009 159.176L469.387 158.381L473.732 160.889ZM472.27 157.954L474.051 158.983L466.956 163.079C466.716 163.217 466.569 163.344 466.513 163.46C466.464 163.575 466.477 163.681 466.552 163.778C466.628 163.874 466.739 163.965 466.887 164.051C466.998 164.115 467.108 164.169 467.217 164.213C467.328 164.258 467.415 164.291 467.477 164.312L466.385 165.289C466.257 165.253 466.085 165.195 465.868 165.116C465.655 165.038 465.419 164.928 465.16 164.786C464.701 164.536 464.366 164.266 464.156 163.974C463.949 163.68 463.898 163.382 464.003 163.079C464.112 162.778 464.404 162.492 464.879 162.221L472.27 157.954ZM469.686 167.456C469.207 167.179 468.861 166.881 468.647 166.561C468.441 166.241 468.395 165.919 468.51 165.595C468.628 165.273 468.934 164.969 469.43 164.683C469.856 164.437 470.288 164.279 470.724 164.209C471.16 164.139 471.598 164.134 472.038 164.195C472.477 164.255 472.91 164.36 473.337 164.507C473.77 164.655 474.19 164.824 474.596 165.013C475.085 165.242 475.485 165.426 475.797 165.564C476.112 165.7 476.371 165.782 476.575 165.808C476.785 165.835 476.975 165.799 477.145 165.7L477.175 165.683C477.546 165.469 477.723 165.24 477.706 164.996C477.69 164.752 477.475 164.51 477.062 164.271C476.625 164.02 476.184 163.875 475.738 163.837C475.295 163.801 474.9 163.832 474.552 163.931L473.125 162.834C473.716 162.645 474.316 162.548 474.926 162.544C475.54 162.539 476.142 162.617 476.732 162.78C477.326 162.941 477.887 163.174 478.415 163.479C478.779 163.689 479.099 163.923 479.374 164.181C479.65 164.438 479.839 164.71 479.94 164.996C480.045 165.28 480.021 165.571 479.867 165.868C479.716 166.167 479.389 166.462 478.887 166.751L473.829 169.672L472.116 168.683L473.155 168.084L473.096 168.05C472.777 168.108 472.428 168.134 472.048 168.126C471.674 168.119 471.283 168.062 470.876 167.956C470.476 167.85 470.079 167.683 469.686 167.456ZM471.457 166.967C471.815 167.174 472.195 167.312 472.599 167.382C473.005 167.45 473.397 167.457 473.775 167.402C474.155 167.349 474.485 167.242 474.764 167.081L475.654 166.567C475.553 166.561 475.415 166.531 475.241 166.476C475.07 166.423 474.888 166.357 474.695 166.28C474.501 166.202 474.313 166.124 474.129 166.044C473.945 165.965 473.786 165.895 473.652 165.837C473.35 165.704 473.053 165.601 472.761 165.527C472.469 165.453 472.189 165.424 471.92 165.439C471.654 165.452 471.406 165.525 471.177 165.658C470.849 165.847 470.721 166.059 470.793 166.294C470.865 166.529 471.086 166.753 471.457 166.967ZM491.92 171.679C492.304 171.404 492.445 171.099 492.343 170.764C492.245 170.431 491.925 170.108 491.383 169.795C491.003 169.576 490.619 169.42 490.232 169.329C489.845 169.238 489.481 169.208 489.14 169.238C488.798 169.269 488.5 169.356 488.244 169.5C488.034 169.621 487.9 169.754 487.841 169.898C487.785 170.043 487.786 170.196 487.845 170.355C487.908 170.512 488.005 170.67 488.136 170.829C488.267 170.988 488.411 171.142 488.569 171.289L489.277 171.971C489.569 172.242 489.815 172.522 490.015 172.812C490.219 173.104 490.345 173.396 490.394 173.69C490.447 173.985 490.393 174.274 490.232 174.556C490.071 174.838 489.773 175.106 489.336 175.357C488.746 175.698 488.075 175.911 487.324 175.997C486.576 176.08 485.79 176.03 484.967 175.846C484.15 175.662 483.338 175.338 482.531 174.872C481.747 174.419 481.188 173.956 480.853 173.483C480.522 173.011 480.427 172.547 480.568 172.091C480.712 171.636 481.106 171.208 481.749 170.807L483.545 171.843C483.22 172.061 483.036 172.292 482.994 172.537C482.951 172.781 483.025 173.024 483.215 173.267C483.409 173.511 483.696 173.743 484.076 173.963C484.473 174.192 484.88 174.358 485.297 174.463C485.72 174.567 486.123 174.606 486.507 174.582C486.894 174.555 487.234 174.46 487.526 174.295C487.785 174.142 487.924 173.972 487.944 173.786C487.967 173.599 487.9 173.393 487.742 173.17C487.591 172.947 487.381 172.704 487.112 172.443L486.261 171.61C485.644 171.008 485.311 170.443 485.262 169.915C485.219 169.386 485.559 168.914 486.281 168.497C486.874 168.154 487.555 167.947 488.323 167.875C489.094 167.805 489.881 167.86 490.685 168.04C491.492 168.218 492.248 168.51 492.953 168.917C493.668 169.33 494.17 169.764 494.459 170.219C494.754 170.673 494.836 171.116 494.705 171.548C494.577 171.978 494.234 172.359 493.677 172.693L491.92 171.679ZM491.205 179.873C490.467 179.447 489.99 178.984 489.773 178.484C489.557 177.984 489.591 177.48 489.876 176.97C490.165 176.463 490.7 175.984 491.481 175.533C492.261 175.082 493.093 174.772 493.975 174.604C494.861 174.437 495.737 174.416 496.603 174.541C497.469 174.666 498.271 174.942 499.009 175.368C499.747 175.794 500.225 176.257 500.441 176.757C500.658 177.257 500.62 177.762 500.328 178.271C500.039 178.783 499.505 179.264 498.724 179.714C497.943 180.165 497.112 180.473 496.229 180.638C495.35 180.804 494.477 180.825 493.611 180.7C492.745 180.575 491.943 180.3 491.205 179.873ZM492.642 179.055C493.042 179.286 493.487 179.416 493.975 179.444C494.468 179.471 494.966 179.414 495.471 179.274C495.98 179.136 496.464 178.934 496.923 178.669C497.385 178.402 497.736 178.122 497.976 177.828C498.222 177.535 498.322 177.246 498.276 176.962C498.23 176.678 498.007 176.42 497.607 176.189C497.197 175.952 496.744 175.82 496.249 175.791C495.757 175.765 495.255 175.822 494.743 175.962C494.238 176.102 493.754 176.305 493.291 176.573C492.832 176.838 492.481 177.116 492.238 177.408C491.999 177.701 491.902 177.99 491.948 178.274C492.001 178.558 492.232 178.819 492.642 179.055ZM504.482 183.698L508.862 181.17L510.643 182.198L503.085 186.561L501.358 185.564L502.701 184.789L502.622 184.743C502.029 184.889 501.402 184.927 500.743 184.857C500.087 184.789 499.475 184.591 498.907 184.263C498.412 183.977 498.084 183.661 497.923 183.314C497.769 182.968 497.797 182.611 498.007 182.243C498.22 181.874 498.628 181.515 499.232 181.167L504.044 178.388L505.826 179.417L501.289 182.036C500.81 182.312 500.561 182.608 500.541 182.922C500.521 183.237 500.725 183.517 501.151 183.763C501.413 183.915 501.732 184.024 502.106 184.093C502.48 184.161 502.872 184.167 503.282 184.112C503.698 184.058 504.099 183.919 504.482 183.698ZM504.917 187.619L512.475 183.255L514.202 184.252L512.942 184.98L513.021 185.025C513.595 184.853 514.168 184.795 514.738 184.852C515.316 184.909 515.821 185.062 516.254 185.312C516.352 185.369 516.457 185.435 516.569 185.511C516.687 185.587 516.779 185.653 516.844 185.71L515.206 186.656C515.157 186.597 515.06 186.515 514.916 186.409C514.778 186.302 514.633 186.206 514.482 186.119C514.158 185.931 513.795 185.803 513.395 185.735C513.001 185.667 512.608 185.661 512.214 185.718C511.82 185.775 511.463 185.896 511.141 186.082L506.698 188.647L504.917 187.619ZM513.249 192.599C512.494 192.164 512.012 191.694 511.802 191.19C511.595 190.688 511.638 190.185 511.93 189.679C512.228 189.173 512.76 188.7 513.524 188.259C514.292 187.815 515.117 187.51 515.999 187.341C516.885 187.171 517.761 187.146 518.627 187.267C519.5 187.388 520.305 187.662 521.043 188.088C521.656 188.442 522.086 188.821 522.332 189.224C522.585 189.628 522.647 190.029 522.519 190.429C522.395 190.827 522.08 191.194 521.574 191.531L519.872 190.548C520.167 190.298 520.307 190.028 520.29 189.739C520.28 189.449 520.061 189.18 519.631 188.932C519.267 188.722 518.848 188.594 518.376 188.548C517.907 188.501 517.413 188.538 516.895 188.659C516.38 188.782 515.868 188.99 515.36 189.284C514.845 189.581 514.477 189.881 514.257 190.182C514.041 190.481 513.969 190.767 514.041 191.04C514.12 191.312 514.344 191.556 514.715 191.77C514.977 191.921 515.261 192.028 515.566 192.091C515.878 192.153 516.199 192.17 516.531 192.142C516.862 192.113 517.19 192.036 517.515 191.909L519.217 192.892C518.64 193.176 518.009 193.359 517.323 193.44C516.641 193.52 515.948 193.491 515.246 193.355C514.548 193.217 513.882 192.965 513.249 192.599ZM521.295 197.244C520.537 196.807 520.04 196.338 519.804 195.838C519.575 195.338 519.602 194.836 519.888 194.33C520.177 193.822 520.716 193.34 521.507 192.884C522.284 192.435 523.114 192.126 523.997 191.958C524.886 191.789 525.762 191.765 526.624 191.884C527.49 192.001 528.284 192.268 529.006 192.685C529.472 192.954 529.836 193.251 530.098 193.577C530.367 193.903 530.505 194.247 530.512 194.611C530.522 194.977 530.377 195.352 530.079 195.736C529.783 196.119 529.304 196.501 528.642 196.884L528.096 197.199L521.9 193.623L523.101 192.929L527.589 195.52C527.927 195.321 528.156 195.103 528.278 194.867C528.402 194.628 528.412 194.39 528.307 194.151C528.206 193.914 527.984 193.697 527.643 193.5C527.279 193.29 526.87 193.157 526.418 193.1C525.968 193.041 525.524 193.05 525.084 193.125C524.651 193.201 524.264 193.336 523.923 193.529L522.875 194.134C522.435 194.388 522.138 194.652 521.984 194.926C521.833 195.199 521.818 195.467 521.94 195.73C522.064 195.992 522.32 196.234 522.707 196.458C522.967 196.607 523.237 196.722 523.519 196.801C523.805 196.879 524.097 196.921 524.395 196.926C524.694 196.932 524.989 196.896 525.281 196.818L526.757 197.886C526.213 198.08 525.629 198.186 525.005 198.205C524.389 198.224 523.762 198.153 523.126 197.994C522.493 197.833 521.882 197.583 521.295 197.244ZM537.845 200.208L536.044 199.373C536.162 199.252 536.236 199.116 536.265 198.967C536.298 198.819 536.264 198.665 536.162 198.504C536.06 198.343 535.872 198.183 535.596 198.024C535.225 197.81 534.833 197.676 534.42 197.623C534.01 197.572 533.679 197.621 533.426 197.771C533.203 197.896 533.104 198.045 533.131 198.22C533.16 198.396 533.323 198.62 533.618 198.893L534.632 199.796C535.193 200.298 535.48 200.746 535.493 201.14C535.509 201.536 535.248 201.891 534.71 202.205C534.231 202.478 533.672 202.64 533.032 202.691C532.399 202.742 531.738 202.686 531.049 202.523C530.36 202.36 529.701 202.097 529.071 201.734C528.146 201.199 527.595 200.658 527.418 200.109C527.244 199.558 527.451 199.05 528.038 198.586L529.942 199.492C529.68 199.735 529.589 199.98 529.671 200.228C529.753 200.476 530 200.718 530.41 200.955C530.833 201.199 531.259 201.345 531.689 201.393C532.122 201.442 532.466 201.393 532.722 201.245C532.939 201.12 533.034 200.968 533.008 200.79C532.985 200.614 532.837 200.404 532.565 200.16L531.546 199.259C530.972 198.754 530.69 198.297 530.7 197.89C530.713 197.481 530.997 197.118 531.551 196.802C532.014 196.531 532.544 196.371 533.141 196.322C533.744 196.273 534.369 196.327 535.015 196.484C535.668 196.641 536.296 196.894 536.9 197.242C537.786 197.754 538.294 198.265 538.425 198.776C538.56 199.29 538.366 199.767 537.845 200.208Z" fill="#57606A"/>
<path opacity="0.7" d="M563.565 137.034L549.265 128.779C548.137 128.128 546.308 128.128 545.18 128.779L530.881 137.034C529.752 137.685 529.752 138.741 530.881 139.392L545.18 147.647C546.308 148.299 548.137 148.299 549.265 147.647L563.565 139.392C564.693 138.741 564.693 137.685 563.565 137.034Z" stroke="#57606A" stroke-width="2" stroke-linecap="round" strokeinejoin="round"/>
<path opacity="0.7" d="M551.465 135.764L542.98 140.662" stroke="#57606A" stroke-width="2" stroke-linecap="round" stroke-linejoin="round"/>
<path opacity="0.7" d="M542.977 135.764L551.462 140.662" stroke="#57606A" stroke-width="2" stroke-linecap="round" stroke-linejoin="round"/>
</g>
</g>
<g filter="url(#filter1_d_818_364)">
<rect width="81.6479" height="26.9438" rx="5" transform="matrix(0.866044 0.499967 -0.866044 0.499967 578.336 177)" fill="white"/>
<path opacity="0.7" d="M579.432 190.267L577.856 189.536C577.959 189.43 578.024 189.311 578.05 189.18C578.079 189.051 578.048 188.916 577.959 188.775C577.871 188.634 577.705 188.494 577.464 188.355C577.14 188.168 576.797 188.051 576.435 188.005C576.076 187.96 575.787 188.003 575.566 188.134C575.37 188.243 575.284 188.374 575.307 188.527C575.333 188.681 575.475 188.877 575.733 189.116L576.62 189.906C577.111 190.345 577.362 190.737 577.374 191.082C577.388 191.428 577.16 191.739 576.689 192.014C576.27 192.253 575.781 192.394 575.221 192.439C574.667 192.484 574.089 192.435 573.486 192.292C572.883 192.15 572.306 191.92 571.755 191.601C570.946 191.134 570.463 190.66 570.308 190.18C570.156 189.697 570.337 189.253 570.851 188.847L572.517 189.64C572.288 189.852 572.209 190.067 572.28 190.284C572.352 190.501 572.567 190.713 572.926 190.92C573.296 191.134 573.67 191.262 574.046 191.303C574.425 191.346 574.726 191.303 574.95 191.174C575.139 191.064 575.223 190.932 575.2 190.776C575.179 190.622 575.05 190.438 574.812 190.224L573.921 189.436C573.418 188.994 573.172 188.595 573.18 188.238C573.192 187.88 573.44 187.563 573.925 187.286C574.33 187.049 574.793 186.909 575.316 186.866C575.844 186.823 576.391 186.87 576.956 187.008C577.527 187.145 578.077 187.367 578.605 187.672C579.38 188.119 579.825 188.566 579.94 189.014C580.058 189.463 579.888 189.88 579.432 190.267ZM578.793 195.664C578.13 195.281 577.695 194.871 577.488 194.434C577.287 193.996 577.311 193.556 577.561 193.114C577.814 192.67 578.286 192.248 578.978 191.849C579.658 191.456 580.384 191.186 581.156 191.038C581.934 190.891 582.701 190.869 583.456 190.974C584.213 191.076 584.908 191.31 585.54 191.675C585.947 191.91 586.266 192.17 586.495 192.455C586.731 192.74 586.851 193.042 586.857 193.36C586.866 193.68 586.739 194.008 586.478 194.344C586.22 194.679 585.801 195.014 585.221 195.348L584.743 195.624L579.322 192.495L580.373 191.888L584.3 194.155C584.595 193.981 584.796 193.791 584.902 193.584C585.011 193.375 585.02 193.166 584.928 192.957C584.839 192.75 584.645 192.56 584.347 192.388C584.028 192.204 583.671 192.087 583.275 192.038C582.882 191.986 582.493 191.994 582.108 192.06C581.729 192.126 581.39 192.244 581.092 192.413L580.175 192.942C579.79 193.164 579.53 193.396 579.395 193.636C579.263 193.874 579.25 194.109 579.357 194.339C579.466 194.568 579.69 194.78 580.028 194.976C580.255 195.106 580.492 195.207 580.739 195.276C580.988 195.344 581.244 195.381 581.505 195.386C581.766 195.391 582.025 195.359 582.28 195.291L583.572 196.226C583.095 196.395 582.584 196.488 582.039 196.504C581.499 196.521 580.951 196.46 580.394 196.32C579.84 196.179 579.306 195.961 578.793 195.664ZM584.951 199.224C584.532 198.982 584.229 198.721 584.042 198.441C583.861 198.161 583.821 197.879 583.922 197.596C584.025 197.314 584.293 197.048 584.727 196.798C585.1 196.583 585.477 196.444 585.859 196.383C586.241 196.322 586.624 196.318 587.009 196.371C587.393 196.424 587.772 196.515 588.145 196.644C588.524 196.773 588.892 196.921 589.248 197.087C589.675 197.287 590.026 197.448 590.298 197.569C590.574 197.688 590.801 197.759 590.979 197.782C591.162 197.806 591.329 197.774 591.478 197.688L591.504 197.673C591.828 197.486 591.983 197.285 591.969 197.072C591.955 196.858 591.767 196.647 591.405 196.438C591.023 196.217 590.637 196.091 590.247 196.057C589.859 196.026 589.513 196.053 589.209 196.139L587.96 195.18C588.477 195.014 589.002 194.93 589.536 194.926C590.073 194.922 590.6 194.99 591.116 195.133C591.636 195.274 592.127 195.477 592.589 195.744C592.908 195.928 593.187 196.133 593.428 196.358C593.67 196.584 593.835 196.821 593.924 197.072C594.015 197.32 593.994 197.575 593.859 197.835C593.727 198.097 593.441 198.354 593.002 198.608L588.576 201.163L587.078 200.298L587.986 199.773L587.935 199.744C587.656 199.795 587.35 199.817 587.017 199.811C586.69 199.804 586.349 199.754 585.993 199.662C585.643 199.569 585.295 199.423 584.951 199.224ZM586.501 198.797C586.814 198.977 587.147 199.098 587.5 199.16C587.856 199.219 588.199 199.225 588.529 199.177C588.862 199.131 589.15 199.037 589.394 198.896L590.173 198.446C590.084 198.441 589.964 198.415 589.812 198.367C589.663 198.32 589.503 198.263 589.334 198.195C589.164 198.127 588.999 198.058 588.839 197.989C588.678 197.919 588.539 197.859 588.421 197.807C588.157 197.691 587.897 197.601 587.642 197.536C587.386 197.472 587.141 197.446 586.905 197.459C586.673 197.471 586.456 197.535 586.255 197.651C585.968 197.816 585.856 198.002 585.919 198.208C585.983 198.413 586.176 198.609 586.501 198.797ZM590.143 202.068L596.757 198.25L598.268 199.122L597.166 199.759L597.235 199.798C597.737 199.648 598.238 199.597 598.737 199.647C599.243 199.696 599.685 199.831 600.063 200.049C600.15 200.099 600.241 200.157 600.339 200.223C600.442 200.29 600.523 200.348 600.58 200.397L599.146 201.225C599.103 201.174 599.019 201.102 598.892 201.009C598.772 200.916 598.645 200.832 598.513 200.755C598.229 200.591 597.912 200.479 597.562 200.42C597.217 200.36 596.873 200.355 596.529 200.405C596.184 200.455 595.871 200.561 595.59 200.723L591.702 202.968L590.143 202.068ZM597.434 206.426C596.774 206.045 596.352 205.634 596.168 205.193C595.987 204.754 596.024 204.313 596.28 203.87C596.541 203.428 597.006 203.014 597.675 202.628C598.347 202.24 599.068 201.972 599.841 201.825C600.616 201.676 601.382 201.654 602.14 201.76C602.903 201.866 603.608 202.106 604.254 202.478C604.791 202.788 605.167 203.12 605.382 203.473C605.603 203.826 605.658 204.177 605.546 204.527C605.437 204.875 605.161 205.196 604.719 205.491L603.229 204.631C603.487 204.412 603.609 204.176 603.595 203.923C603.587 203.669 603.394 203.434 603.018 203.217C602.7 203.033 602.334 202.921 601.92 202.881C601.51 202.84 601.078 202.872 600.624 202.978C600.174 203.086 599.726 203.268 599.281 203.525C598.83 203.785 598.509 204.047 598.316 204.31C598.127 204.572 598.064 204.822 598.127 205.061C598.196 205.3 598.393 205.513 598.717 205.7C598.947 205.832 599.195 205.926 599.462 205.981C599.734 206.035 600.016 206.05 600.306 206.025C600.596 206.001 600.883 205.933 601.167 205.822L602.657 206.682C602.151 206.93 601.599 207.09 600.999 207.161C600.402 207.231 599.796 207.206 599.182 207.087C598.57 206.966 597.988 206.745 597.434 206.426ZM607.11 207.388L603.235 209.625L601.676 208.725L610.494 203.635L612.018 204.515L608.69 206.436L608.767 206.481C609.295 206.355 609.829 206.324 610.369 206.387C610.914 206.449 611.44 206.627 611.945 206.918C612.404 207.184 612.708 207.47 612.858 207.778C613.007 208.087 612.99 208.402 612.806 208.723C612.625 209.046 612.268 209.362 611.734 209.67L607.523 212.101L605.964 211.201L609.934 208.909C610.379 208.653 610.61 208.387 610.627 208.112C610.65 207.836 610.456 207.58 610.046 207.343C609.77 207.184 609.463 207.077 609.125 207.02C608.792 206.964 608.452 206.965 608.104 207.023C607.76 207.082 607.428 207.204 607.11 207.388ZM619.116 215.582L622.948 213.37L624.506 214.27L617.893 218.088L616.382 217.215L617.557 216.537L617.488 216.497C616.969 216.624 616.42 216.658 615.844 216.596C615.269 216.537 614.734 216.363 614.238 216.077C613.804 215.827 613.517 215.55 613.376 215.247C613.242 214.943 613.266 214.631 613.45 214.309C613.636 213.986 613.994 213.672 614.522 213.367L618.733 210.936L620.291 211.836L616.321 214.128C615.902 214.37 615.684 214.628 615.667 214.904C615.65 215.179 615.828 215.424 616.201 215.639C616.431 215.772 616.709 215.868 617.036 215.928C617.363 215.987 617.706 215.993 618.065 215.945C618.43 215.897 618.78 215.776 619.116 215.582ZM619.496 219.013L626.109 215.195L627.62 216.067L626.518 216.704L626.587 216.744C627.089 216.593 627.59 216.542 628.09 216.592C628.595 216.642 629.037 216.776 629.416 216.995C629.502 217.044 629.594 217.102 629.691 217.169C629.795 217.235 629.875 217.293 629.933 217.343L628.499 218.17C628.456 218.119 628.371 218.047 628.245 217.954C628.124 217.861 627.998 217.777 627.866 217.7C627.582 217.536 627.265 217.425 626.914 217.365C626.57 217.305 626.225 217.3 625.881 217.35C625.537 217.4 625.224 217.506 624.942 217.668L621.054 219.913L619.496 219.013ZM634.68 217.597L625.862 222.688L624.303 221.788L633.121 216.698L634.68 217.597Z" fill="#57606A"/>
</g>
<g filter="url(#filter2_d_818_364)">
<g clip-path="url(#clip2_818_364)">
<rect width="163.296" height="163.296" rx="5" transform="matrix(0.866044 0.499967 -0.866044 0.499967 459.422 219)" fill="white"/>
<path opacity="0.7" d="M408.801 299.541L406.852 298.416L420.478 294.646L422.731 295.947L416.207 303.816L414.258 302.691L419.577 296.513L419.499 296.467L408.801 299.541ZM412.816 297.297L418.131 300.365L416.664 301.211L411.35 298.143L412.816 297.297ZM419.897 306.1C419.303 305.757 418.924 305.363 418.76 304.916C418.596 304.469 418.669 303.999 418.977 303.507C419.285 303.014 419.854 302.528 420.684 302.049C421.524 301.565 422.371 301.235 423.223 301.061C424.083 300.887 424.897 300.851 425.664 300.953C426.435 301.053 427.111 301.271 427.691 301.606C428.134 301.862 428.423 302.116 428.558 302.368C428.695 302.618 428.743 302.851 428.7 303.069C428.661 303.285 428.595 303.473 428.503 303.632L428.577 303.674L432.346 301.498L434.133 302.529L424.055 308.347L422.303 307.336L423.494 306.648L423.386 306.586C423.11 306.639 422.782 306.675 422.402 306.694C422.024 306.711 421.621 306.679 421.191 306.597C420.761 306.516 420.33 306.35 419.897 306.1ZM421.856 305.543C422.233 305.761 422.656 305.888 423.125 305.924C423.597 305.958 424.086 305.909 424.591 305.776C425.097 305.644 425.594 305.436 426.082 305.154C426.571 304.872 426.927 304.587 427.15 304.299C427.377 304.013 427.457 303.736 427.391 303.467C427.329 303.2 427.106 302.956 426.722 302.734C426.325 302.505 425.89 302.373 425.418 302.339C424.946 302.305 424.46 302.354 423.962 302.487C423.463 302.619 422.979 302.821 422.51 303.092C422.038 303.365 421.683 303.647 421.447 303.938C421.217 304.23 421.129 304.514 421.181 304.791C421.24 305.067 421.465 305.318 421.856 305.543ZM428.625 311.139C428.031 310.796 427.653 310.401 427.488 309.954C427.324 309.507 427.397 309.038 427.705 308.545C428.013 308.053 428.583 307.567 429.412 307.088C430.252 306.603 431.099 306.274 431.952 306.1C432.811 305.925 433.625 305.889 434.392 305.992C435.163 306.092 435.839 306.31 436.42 306.645C436.862 306.901 437.151 307.154 437.286 307.406C437.423 307.656 437.471 307.89 437.428 308.108C437.389 308.324 437.323 308.511 437.231 308.67L437.305 308.713L441.075 306.537L442.861 307.568L432.783 313.386L431.031 312.375L432.222 311.687L432.114 311.625C431.838 311.678 431.51 311.714 431.13 311.733C430.753 311.75 430.349 311.718 429.919 311.636C429.49 311.555 429.058 311.389 428.625 311.139ZM430.584 310.582C430.961 310.8 431.384 310.927 431.853 310.963C432.326 310.997 432.814 310.948 433.32 310.815C433.825 310.683 434.322 310.475 434.811 310.193C435.299 309.911 435.655 309.626 435.878 309.338C436.105 309.052 436.185 308.775 436.119 308.506C436.057 308.239 435.834 307.994 435.45 307.773C435.053 307.544 434.619 307.412 434.146 307.378C433.674 307.344 433.188 307.393 432.69 307.526C432.191 307.658 431.707 307.86 431.238 308.131C430.766 308.403 430.411 308.686 430.175 308.977C429.946 309.269 429.857 309.553 429.909 309.829C429.969 310.106 430.193 310.357 430.584 310.582ZM456.556 315.475L446.479 321.292L444.855 320.355L446.971 313.651L446.887 313.603L440.023 317.565L438.197 316.511L448.275 310.694L449.908 311.637L447.783 318.341L447.871 318.392L454.741 314.426L456.556 315.475ZM451.588 324.412C450.83 323.975 450.333 323.506 450.097 323.006C449.867 322.506 449.895 322.003 450.18 321.498C450.469 320.99 451.009 320.508 451.799 320.052C452.577 319.603 453.407 319.294 454.289 319.126C455.178 318.957 456.054 318.932 456.917 319.052C457.783 319.169 458.577 319.436 459.298 319.853C459.764 320.122 460.128 320.419 460.391 320.745C460.66 321.071 460.798 321.415 460.804 321.779C460.814 322.144 460.67 322.519 460.371 322.904C460.076 323.286 459.597 323.669 458.934 324.051L458.388 324.367L452.193 320.79L453.394 320.097L457.881 322.688C458.219 322.489 458.449 322.271 458.57 322.035C458.695 321.796 458.705 321.557 458.6 321.319C458.498 321.082 458.277 320.865 457.935 320.668C457.571 320.458 457.163 320.324 456.71 320.268C456.261 320.209 455.816 320.217 455.377 320.293C454.944 320.369 454.556 320.503 454.215 320.697L453.167 321.302C452.728 321.555 452.431 321.82 452.277 322.094C452.126 322.367 452.111 322.635 452.232 322.898C452.357 323.159 452.613 323.402 453 323.625C453.259 323.775 453.53 323.89 453.812 323.969C454.097 324.047 454.389 324.088 454.688 324.094C454.986 324.1 455.281 324.064 455.573 323.986L457.05 325.054C456.505 325.247 455.921 325.353 455.298 325.372C454.681 325.391 454.055 325.321 453.418 325.162C452.785 325.001 452.175 324.751 451.588 324.412ZM458.122 328.014L463.545 322.418L465.361 323.466L461.375 327.301L461.444 327.341L468.116 325.057L469.912 326.094L465.986 329.929L466.059 329.972L472.653 327.676L474.474 328.727L464.775 331.855L462.92 330.784L466.611 327.017L466.507 326.958L459.982 329.088L458.122 328.014ZM400.277 306.182C400.661 305.907 400.802 305.602 400.7 305.267C400.602 304.934 400.282 304.611 399.741 304.299C399.36 304.079 398.976 303.924 398.589 303.833C398.202 303.742 397.838 303.711 397.497 303.742C397.156 303.772 396.857 303.859 396.601 304.003C396.391 304.124 396.257 304.257 396.198 304.401C396.142 304.547 396.144 304.699 396.203 304.858C396.265 305.015 396.362 305.173 396.493 305.333C396.624 305.492 396.769 305.645 396.926 305.793L397.635 306.475C397.927 306.745 398.173 307.026 398.373 307.315C398.576 307.607 398.702 307.9 398.752 308.193C398.804 308.489 398.75 308.777 398.589 309.06C398.428 309.342 398.13 309.609 397.694 309.861C397.103 310.202 396.432 310.415 395.681 310.5C394.933 310.583 394.147 310.533 393.324 310.349C392.507 310.166 391.695 309.841 390.888 309.375C390.104 308.922 389.545 308.459 389.21 307.986C388.879 307.514 388.784 307.05 388.925 306.594C389.069 306.139 389.463 305.711 390.106 305.31L391.902 306.347C391.577 306.564 391.393 306.796 391.351 307.04C391.308 307.284 391.382 307.527 391.572 307.77C391.766 308.014 392.053 308.246 392.433 308.466C392.83 308.695 393.237 308.862 393.654 308.966C394.077 309.07 394.48 309.11 394.864 309.085C395.251 309.059 395.591 308.963 395.883 308.798C396.142 308.645 396.281 308.475 396.301 308.29C396.324 308.102 396.257 307.897 396.099 307.673C395.948 307.45 395.738 307.207 395.469 306.946L394.618 306.114C394.001 305.511 393.668 304.946 393.619 304.418C393.577 303.889 393.916 303.417 394.638 303C395.232 302.658 395.912 302.45 396.68 302.378C397.451 302.308 398.238 302.363 399.042 302.543C399.849 302.721 400.605 303.014 401.31 303.421C402.025 303.834 402.527 304.267 402.816 304.722C403.111 305.176 403.193 305.619 403.062 306.051C402.934 306.481 402.591 306.863 402.034 307.196L400.277 306.182ZM399.611 314.405C398.854 313.968 398.357 313.499 398.12 312.999C397.891 312.499 397.919 311.996 398.204 311.491C398.493 310.983 399.032 310.501 399.823 310.045C400.601 309.596 401.43 309.287 402.313 309.119C403.202 308.95 404.078 308.925 404.941 309.045C405.807 309.162 406.601 309.429 407.322 309.846C407.788 310.115 408.152 310.412 408.415 310.738C408.684 311.063 408.821 311.408 408.828 311.772C408.838 312.137 408.693 312.512 408.395 312.897C408.1 313.279 407.621 313.662 406.958 314.044L406.412 314.36L400.217 310.783L401.417 310.09L405.905 312.681C406.243 312.482 406.473 312.264 406.594 312.027C406.719 311.789 406.728 311.55 406.623 311.312C406.522 311.075 406.3 310.858 405.959 310.661C405.595 310.451 405.187 310.317 404.734 310.26C404.284 310.202 403.84 310.21 403.4 310.286C402.967 310.362 402.58 310.496 402.239 310.689L401.191 311.294C400.751 311.548 400.455 311.812 400.3 312.087C400.149 312.36 400.135 312.628 400.256 312.891C400.381 313.152 400.637 313.395 401.024 313.618C401.283 313.768 401.554 313.882 401.836 313.962C402.121 314.04 402.413 314.081 402.712 314.087C403.01 314.093 403.305 314.057 403.597 313.979L405.073 315.047C404.529 315.24 403.945 315.346 403.322 315.365C402.705 315.384 402.078 315.314 401.442 315.155C400.809 314.994 400.199 314.744 399.611 314.405ZM406.649 318.474C406.17 318.197 405.824 317.899 405.611 317.579C405.404 317.259 405.358 316.937 405.473 316.613C405.591 316.291 405.898 315.987 406.393 315.701C406.82 315.455 407.251 315.297 407.688 315.227C408.124 315.157 408.562 315.152 409.001 315.213C409.441 315.273 409.874 315.377 410.3 315.525C410.733 315.673 411.153 315.841 411.56 316.031C412.049 316.26 412.449 316.444 412.761 316.582C413.076 316.718 413.335 316.8 413.538 316.826C413.748 316.853 413.939 316.817 414.109 316.718L414.139 316.701C414.509 316.487 414.686 316.258 414.67 316.014C414.654 315.769 414.439 315.528 414.025 315.289C413.589 315.037 413.148 314.893 412.702 314.855C412.259 314.819 411.864 314.85 411.516 314.948L410.089 313.852C410.679 313.662 411.28 313.566 411.89 313.562C412.503 313.556 413.105 313.635 413.696 313.798C414.29 313.959 414.85 314.192 415.379 314.497C415.743 314.707 416.063 314.941 416.338 315.198C416.614 315.456 416.802 315.728 416.904 316.014C417.009 316.298 416.984 316.588 416.83 316.886C416.679 317.185 416.353 317.479 415.851 317.769L410.793 320.689L409.08 319.701L410.118 319.102L410.059 319.067C409.741 319.126 409.392 319.152 409.011 319.144C408.637 319.137 408.247 319.08 407.84 318.974C407.44 318.868 407.043 318.701 406.649 318.474ZM408.421 317.985C408.778 318.192 409.159 318.33 409.562 318.4C409.969 318.468 410.361 318.475 410.738 318.42C411.119 318.367 411.449 318.26 411.727 318.099L412.618 317.585C412.516 317.579 412.379 317.549 412.205 317.494C412.034 317.441 411.852 317.375 411.659 317.298C411.465 317.22 411.276 317.141 411.093 317.062C410.909 316.982 410.75 316.913 410.615 316.855C410.314 316.722 410.017 316.619 409.725 316.545C409.433 316.471 409.152 316.442 408.883 316.457C408.618 316.47 408.37 316.543 408.14 316.676C407.812 316.865 407.684 317.077 407.756 317.312C407.829 317.547 408.05 317.771 408.421 317.985ZM412.584 321.724L420.142 317.36L421.869 318.357L420.609 319.084L420.688 319.13C421.262 318.958 421.835 318.9 422.405 318.957C422.983 319.013 423.488 319.167 423.921 319.417C424.019 319.474 424.124 319.54 424.236 319.616C424.354 319.691 424.446 319.758 424.511 319.815L422.873 320.761C422.824 320.702 422.727 320.619 422.583 320.513C422.445 320.407 422.3 320.311 422.15 320.224C421.825 320.036 421.462 319.908 421.062 319.84C420.668 319.772 420.275 319.766 419.881 319.823C419.487 319.88 419.13 320.001 418.808 320.187L414.365 322.752L412.584 321.724ZM420.916 326.704C420.161 326.268 419.679 325.799 419.469 325.295C419.262 324.793 419.305 324.289 419.597 323.784C419.895 323.278 420.427 322.805 421.191 322.363C421.959 321.92 422.784 321.614 423.666 321.446C424.552 321.275 425.428 321.251 426.294 321.372C427.167 321.493 427.972 321.767 428.71 322.193C429.324 322.547 429.753 322.926 429.999 323.329C430.252 323.733 430.314 324.134 430.186 324.534C430.062 324.931 429.747 325.299 429.241 325.636L427.539 324.653C427.834 324.403 427.974 324.133 427.957 323.843C427.947 323.554 427.728 323.285 427.298 323.037C426.934 322.826 426.515 322.699 426.043 322.653C425.574 322.606 425.08 322.643 424.562 322.764C424.047 322.887 423.535 323.095 423.027 323.389C422.512 323.686 422.144 323.985 421.924 324.287C421.708 324.586 421.636 324.872 421.708 325.144C421.787 325.417 422.011 325.661 422.382 325.875C422.644 326.026 422.928 326.133 423.233 326.196C423.545 326.258 423.866 326.275 424.198 326.247C424.529 326.218 424.857 326.141 425.182 326.014L426.884 326.997C426.307 327.281 425.676 327.463 424.99 327.545C424.308 327.624 423.615 327.596 422.913 327.46C422.215 327.321 421.549 327.07 420.916 326.704ZM431.974 327.804L427.545 330.361L425.764 329.332L435.841 323.515L437.583 324.52L433.78 326.716L433.868 326.767C434.472 326.623 435.082 326.587 435.699 326.659C436.322 326.731 436.922 326.934 437.5 327.267C438.025 327.57 438.372 327.898 438.543 328.25C438.713 328.602 438.694 328.962 438.484 329.33C438.277 329.699 437.869 330.06 437.259 330.412L432.446 333.19L430.665 332.162L435.202 329.543C435.71 329.249 435.974 328.945 435.994 328.631C436.02 328.316 435.799 328.024 435.33 327.753C435.015 327.571 434.664 327.448 434.277 327.384C433.896 327.319 433.507 327.32 433.11 327.386C432.717 327.455 432.338 327.594 431.974 327.804ZM454.208 334.118L456.034 335.171L449.45 338.972C448.728 339.389 447.923 339.657 447.034 339.776C446.148 339.898 445.244 339.87 444.322 339.694C443.404 339.516 442.534 339.19 441.714 338.717C440.891 338.241 440.325 337.739 440.017 337.208C439.712 336.676 439.664 336.154 439.874 335.643C440.084 335.132 440.55 334.668 441.271 334.251L447.855 330.45L449.681 331.504L443.25 335.217C442.83 335.459 442.548 335.728 442.403 336.024C442.262 336.321 442.267 336.621 442.418 336.924C442.572 337.225 442.88 337.509 443.343 337.776C443.806 338.043 444.298 338.221 444.819 338.31C445.347 338.4 445.867 338.402 446.379 338.319C446.891 338.236 447.357 338.073 447.777 337.83L454.208 334.118ZM447.861 342.089L455.42 337.726L457.147 338.723L455.887 339.45L455.966 339.496C456.54 339.323 457.112 339.266 457.683 339.322C458.261 339.379 458.766 339.533 459.199 339.783C459.297 339.84 459.402 339.906 459.514 339.982C459.632 340.057 459.724 340.124 459.789 340.18L458.151 341.126C458.101 341.068 458.005 340.985 457.86 340.879C457.723 340.773 457.578 340.677 457.427 340.589C457.103 340.402 456.74 340.274 456.34 340.206C455.946 340.138 455.553 340.132 455.159 340.189C454.765 340.246 454.408 340.367 454.086 340.553L449.643 343.118L447.861 342.089ZM465.214 340.472L455.137 346.289L453.355 345.261L463.433 339.443L465.214 340.472Z" fill="#57606A"/>
<path opacity="0.7" d="M471.441 292.07C473.784 293.423 477.583 293.423 479.926 292.07C482.269 290.718 482.269 288.525 479.926 287.172C477.583 285.819 473.784 285.819 471.441 287.172C469.098 288.525 469.098 290.718 471.441 292.07Z" stroke="#57606A" stroke-width="2" stroke-linecap="round" stroke-linejoin="round"/>
<path opacity="0.7" d="M475.684 296.152V293.703" stroke="#57606A" stroke-width="2" stroke-linecap="round" stroke-linejoin="round"/>
<path opacity="0.7" d="M477.809 288.396L473.566 290.846" stroke="#57606A" stroke-width="1.3" stroke-linecap="round" stroke-linejoin="round"/>
<path opacity="0.7" d="M473.562 288.396L477.805 290.846" stroke="#57606A" stroke-width="1.3" stroke-linecap="round" stroke-linejoin="round"/>
<path opacity="0.7" d="M492.026 289.258L477.726 281.004C476.598 280.352 474.769 280.352 473.641 281.004L459.342 289.258C458.213 289.91 458.213 290.966 459.342 291.617L473.641 299.872C474.769 300.523 476.598 300.523 477.726 299.872L492.026 291.617C493.154 290.966 493.154 289.91 492.026 289.258Z" stroke="#57606A" stroke-width="2" stroke-linecap="round" stroke-linejoin="round"/>
</g>
</g>
<g filter="url(#filter3_d_818_364)">
<g clip-path="url(#clip3_818_364)">
<rect width="163.296" height="163.296" rx="5" transform="matrix(0.866044 0.499967 -0.866044 0.499967 342.422 96)" fill="white"/>
<path opacity="0.7" d="M293.488 180.783L291.539 179.658L305.165 175.888L307.419 177.189L300.894 185.058L298.945 183.933L304.264 177.755L304.186 177.709L293.488 180.783ZM297.503 178.539L302.818 181.607L301.351 182.453L296.037 179.385L297.503 178.539ZM304.584 187.342C303.991 186.999 303.612 186.605 303.448 186.158C303.284 185.711 303.356 185.241 303.664 184.749C303.972 184.256 304.542 183.771 305.372 183.291C306.211 182.807 307.058 182.477 307.911 182.303C308.77 182.129 309.584 182.093 310.351 182.195C311.122 182.295 311.798 182.513 312.379 182.848C312.822 183.104 313.11 183.358 313.245 183.61C313.383 183.86 313.43 184.093 313.387 184.311C313.348 184.527 313.282 184.715 313.191 184.874L313.264 184.916L317.034 182.74L318.82 183.771L308.742 189.589L306.991 188.578L308.181 187.891L308.073 187.828C307.798 187.881 307.469 187.917 307.089 187.936C306.712 187.953 306.308 187.921 305.878 187.839C305.449 187.758 305.017 187.592 304.584 187.342ZM306.543 186.785C306.92 187.003 307.343 187.13 307.812 187.166C308.285 187.2 308.773 187.151 309.279 187.018C309.784 186.886 310.281 186.678 310.77 186.396C311.258 186.114 311.614 185.829 311.837 185.541C312.064 185.255 312.144 184.978 312.079 184.709C312.016 184.442 311.793 184.198 311.409 183.976C311.012 183.747 310.578 183.615 310.105 183.581C309.633 183.547 309.147 183.596 308.649 183.729C308.15 183.861 307.666 184.063 307.197 184.334C306.725 184.607 306.371 184.889 306.134 185.18C305.905 185.472 305.816 185.756 305.869 186.033C305.928 186.309 306.152 186.56 306.543 186.785ZM313.312 192.381C312.719 192.038 312.34 191.643 312.176 191.196C312.012 190.749 312.084 190.28 312.392 189.787C312.701 189.295 313.27 188.809 314.1 188.33C314.94 187.845 315.786 187.516 316.639 187.342C317.498 187.167 318.312 187.131 319.079 187.234C319.85 187.334 320.526 187.552 321.107 187.887C321.55 188.143 321.838 188.396 321.973 188.648C322.111 188.898 322.158 189.132 322.116 189.35C322.076 189.566 322.011 189.753 321.919 189.912L321.993 189.955L325.762 187.779L327.548 188.81L317.47 194.628L315.719 193.617L316.909 192.929L316.801 192.867C316.526 192.92 316.198 192.956 315.817 192.975C315.44 192.992 315.036 192.96 314.607 192.878C314.177 192.797 313.745 192.631 313.312 192.381ZM315.271 191.824C315.648 192.042 316.071 192.169 316.54 192.205C317.013 192.239 317.502 192.19 318.007 192.057C318.512 191.925 319.009 191.717 319.498 191.435C319.987 191.153 320.342 190.868 320.566 190.58C320.792 190.294 320.872 190.017 320.807 189.748C320.744 189.481 320.521 189.236 320.137 189.015C319.74 188.786 319.306 188.654 318.833 188.62C318.361 188.586 317.876 188.635 317.377 188.768C316.878 188.9 316.394 189.102 315.925 189.373C315.453 189.645 315.099 189.928 314.862 190.219C314.633 190.511 314.544 190.795 314.597 191.071C314.656 191.348 314.88 191.599 315.271 191.824ZM341.244 196.717L331.166 202.534L329.542 201.597L331.658 194.893L331.574 194.845L324.71 198.807L322.884 197.753L332.962 191.936L334.596 192.879L332.47 199.583L332.559 199.634L339.428 195.668L341.244 196.717ZM336.275 205.654C335.517 205.217 335.02 204.748 334.784 204.248C334.554 203.748 334.582 203.245 334.868 202.74C335.156 202.232 335.696 201.75 336.486 201.294C337.264 200.845 338.094 200.536 338.976 200.368C339.865 200.199 340.741 200.175 341.604 200.294C342.47 200.411 343.264 200.678 343.986 201.095C344.451 201.364 344.816 201.661 345.078 201.987C345.347 202.313 345.485 202.657 345.491 203.021C345.501 203.386 345.357 203.761 345.058 204.146C344.763 204.528 344.284 204.911 343.621 205.293L343.075 205.609L336.88 202.032L338.081 201.339L342.568 203.93C342.906 203.731 343.136 203.513 343.257 203.277C343.382 203.038 343.392 202.799 343.287 202.561C343.185 202.324 342.964 202.107 342.623 201.91C342.258 201.7 341.85 201.566 341.397 201.51C340.948 201.451 340.503 201.459 340.064 201.535C339.631 201.611 339.244 201.745 338.903 201.939L337.854 202.544C337.415 202.797 337.118 203.062 336.964 203.336C336.813 203.609 336.798 203.877 336.919 204.14C337.044 204.402 337.3 204.644 337.687 204.867C337.946 205.017 338.217 205.132 338.499 205.211C338.784 205.289 339.076 205.33 339.375 205.336C339.673 205.342 339.969 205.306 340.261 205.228L341.737 206.296C341.192 206.489 340.608 206.595 339.985 206.614C339.368 206.633 338.742 206.563 338.105 206.404C337.472 206.243 336.862 205.993 336.275 205.654ZM342.81 209.256L348.232 203.66L350.048 204.708L346.062 208.543L346.131 208.583L352.804 206.299L354.6 207.336L350.673 211.171L350.747 211.214L357.34 208.918L359.161 209.969L349.462 213.097L347.607 212.026L351.298 208.259L351.194 208.2L344.67 210.33L342.81 209.256ZM267.41 185.727L277.488 179.909L281.267 182.091C282.041 182.538 282.546 182.996 282.782 183.466C283.022 183.937 283.024 184.397 282.787 184.843C282.558 185.29 282.123 185.699 281.483 186.068C280.837 186.441 280.127 186.694 279.353 186.826C278.579 186.959 277.781 186.955 276.961 186.815C276.144 186.673 275.347 186.377 274.57 185.929L272.065 184.483L273.566 183.616L275.825 184.92C276.277 185.182 276.727 185.35 277.173 185.426C277.619 185.502 278.049 185.5 278.462 185.42C278.879 185.342 279.266 185.2 279.623 184.994C279.981 184.788 280.225 184.565 280.357 184.326C280.491 184.09 280.488 183.844 280.347 183.588C280.212 183.332 279.917 183.073 279.461 182.81L277.788 181.844L269.236 186.781L267.41 185.727ZM276.249 190.83L283.807 186.466L285.534 187.463L284.275 188.191L284.353 188.236C284.928 188.064 285.5 188.006 286.071 188.063C286.648 188.12 287.153 188.273 287.586 188.523C287.685 188.58 287.79 188.646 287.901 188.722C288.019 188.798 288.111 188.864 288.177 188.921L286.538 189.867C286.489 189.808 286.392 189.725 286.248 189.619C286.11 189.513 285.966 189.417 285.815 189.33C285.49 189.142 285.128 189.014 284.727 188.946C284.334 188.878 283.94 188.872 283.546 188.929C283.153 188.986 282.795 189.107 282.474 189.293L278.03 191.858L276.249 190.83ZM284.581 195.81C283.843 195.384 283.366 194.921 283.149 194.421C282.933 193.921 282.967 193.416 283.252 192.907C283.541 192.399 284.076 191.92 284.857 191.469C285.637 191.019 286.469 190.709 287.351 190.541C288.237 190.374 289.113 190.353 289.979 190.478C290.845 190.603 291.647 190.879 292.385 191.305C293.123 191.731 293.601 192.194 293.817 192.694C294.034 193.194 293.996 193.698 293.704 194.208C293.415 194.719 292.881 195.2 292.1 195.651C291.319 196.102 290.487 196.409 289.605 196.574C288.726 196.741 287.853 196.762 286.987 196.637C286.121 196.512 285.319 196.236 284.581 195.81ZM286.018 194.992C286.418 195.223 286.863 195.353 287.351 195.381C287.843 195.408 288.342 195.351 288.847 195.211C289.356 195.072 289.84 194.871 290.299 194.606C290.761 194.339 291.112 194.058 291.352 193.765C291.598 193.471 291.698 193.182 291.652 192.898C291.606 192.614 291.383 192.357 290.983 192.126C290.573 191.889 290.12 191.756 289.625 191.728C289.133 191.701 288.631 191.758 288.119 191.898C287.614 192.039 287.13 192.242 286.667 192.509C286.208 192.774 285.857 193.053 285.614 193.344C285.375 193.638 285.278 193.927 285.324 194.211C285.377 194.495 285.608 194.755 286.018 194.992ZM292.534 200.384C291.94 200.042 291.561 199.647 291.397 199.2C291.233 198.753 291.306 198.283 291.614 197.791C291.922 197.298 292.491 196.813 293.321 196.333C294.161 195.849 295.008 195.519 295.86 195.345C296.72 195.171 297.534 195.135 298.301 195.237C299.072 195.337 299.748 195.555 300.328 195.89C300.771 196.146 301.06 196.4 301.195 196.652C301.332 196.902 301.38 197.136 301.337 197.353C301.298 197.569 301.232 197.757 301.14 197.916L301.214 197.958L304.983 195.782L306.77 196.814L296.692 202.631L294.94 201.62L296.131 200.933L296.023 200.87C295.747 200.923 295.419 200.959 295.039 200.978C294.661 200.995 294.258 200.963 293.828 200.881C293.398 200.8 292.967 200.634 292.534 200.384ZM294.493 199.828C294.87 200.045 295.293 200.172 295.762 200.208C296.234 200.242 296.723 200.193 297.228 200.061C297.734 199.928 298.231 199.721 298.719 199.438C299.208 199.156 299.564 198.871 299.787 198.583C300.014 198.297 300.094 198.02 300.028 197.751C299.966 197.484 299.743 197.24 299.359 197.018C298.962 196.789 298.528 196.657 298.055 196.623C297.583 196.589 297.097 196.638 296.599 196.771C296.1 196.904 295.616 197.105 295.147 197.376C294.675 197.649 294.32 197.931 294.084 198.223C293.854 198.514 293.766 198.798 293.818 199.075C293.877 199.351 294.102 199.602 294.493 199.828ZM306.586 204.673L310.966 202.145L312.747 203.173L305.189 207.537L303.462 206.539L304.805 205.764L304.726 205.719C304.133 205.864 303.506 205.902 302.847 205.832C302.191 205.764 301.579 205.566 301.011 205.238C300.516 204.952 300.188 204.636 300.027 204.29C299.873 203.943 299.901 203.586 300.111 203.219C300.324 202.849 300.732 202.491 301.336 202.142L306.148 199.364L307.93 200.392L303.393 203.011C302.914 203.288 302.665 203.583 302.645 203.898C302.625 204.212 302.829 204.492 303.255 204.738C303.518 204.89 303.836 205 304.21 205.068C304.584 205.136 304.976 205.143 305.386 205.088C305.802 205.033 306.203 204.895 306.586 204.673ZM310.17 210.583C309.415 210.147 308.933 209.677 308.723 209.174C308.517 208.672 308.559 208.168 308.851 207.662C309.15 207.157 309.681 206.683 310.445 206.242C311.213 205.799 312.038 205.493 312.921 205.324C313.806 205.154 314.682 205.129 315.548 205.251C316.421 205.372 317.226 205.645 317.964 206.071C318.578 206.426 319.007 206.804 319.254 207.208C319.506 207.611 319.568 208.013 319.441 208.412C319.316 208.81 319.001 209.177 318.496 209.514L316.793 208.532C317.088 208.282 317.228 208.012 317.211 207.722C317.202 207.432 316.982 207.163 316.552 206.915C316.188 206.705 315.77 206.577 315.297 206.532C314.828 206.484 314.334 206.521 313.816 206.642C313.301 206.766 312.789 206.974 312.281 207.267C311.766 207.565 311.398 207.864 311.179 208.165C310.962 208.464 310.89 208.75 310.962 209.023C311.041 209.296 311.266 209.539 311.636 209.753C311.899 209.905 312.182 210.012 312.488 210.074C312.799 210.137 313.121 210.154 313.452 210.125C313.783 210.097 314.111 210.019 314.436 209.892L316.139 210.875C315.561 211.159 314.93 211.342 314.244 211.423C313.562 211.503 312.87 211.475 312.168 211.338C311.469 211.2 310.803 210.948 310.17 210.583ZM326.35 211.026L324.973 211.822L320.628 209.313L322.005 208.518L326.35 211.026ZM324.889 208.092L326.67 209.12L319.575 213.217C319.335 213.355 319.188 213.482 319.132 213.597C319.083 213.713 319.096 213.819 319.171 213.915C319.247 214.012 319.358 214.103 319.506 214.188C319.617 214.253 319.727 214.307 319.835 214.35C319.947 214.396 320.034 214.429 320.096 214.449L319.004 215.427C318.876 215.391 318.704 215.333 318.487 215.253C318.274 215.176 318.038 215.066 317.779 214.924C317.319 214.674 316.985 214.403 316.775 214.111C316.568 213.818 316.517 213.52 316.622 213.217C316.73 212.916 317.022 212.63 317.498 212.359L324.889 208.092ZM340.228 216.129L342.054 217.183L335.47 220.984C334.748 221.401 333.943 221.668 333.054 221.788C332.168 221.909 331.264 221.882 330.342 221.705C329.424 221.527 328.554 221.202 327.734 220.728C326.911 220.253 326.345 219.75 326.037 219.22C325.732 218.688 325.684 218.166 325.894 217.655C326.104 217.143 326.57 216.679 327.292 216.263L333.875 212.462L335.701 213.516L329.27 217.228C328.85 217.471 328.568 217.74 328.423 218.035C328.282 218.333 328.287 218.633 328.438 218.936C328.592 219.237 328.901 219.521 329.363 219.788C329.826 220.055 330.318 220.233 330.839 220.322C331.367 220.411 331.887 220.414 332.399 220.331C332.911 220.247 333.377 220.084 333.797 219.842L340.228 216.129ZM333.882 224.101L341.44 219.738L343.167 220.735L341.907 221.462L341.986 221.507C342.56 221.335 343.132 221.277 343.703 221.334C344.281 221.391 344.786 221.544 345.219 221.794C345.317 221.851 345.422 221.917 345.534 221.993C345.652 222.069 345.744 222.135 345.809 222.192L344.171 223.138C344.122 223.079 344.025 222.997 343.88 222.891C343.743 222.785 343.598 222.688 343.447 222.601C343.123 222.413 342.76 222.286 342.36 222.217C341.966 222.149 341.573 222.144 341.179 222.2C340.785 222.257 340.428 222.378 340.106 222.564L335.663 225.129L333.882 224.101ZM351.234 222.483L341.157 228.301L339.376 227.273L349.453 221.455L351.234 222.483Z" fill="#57606A"/>
<path opacity="0.7" d="M379.272 165.442L364.972 157.187C363.844 156.536 362.015 156.536 360.887 157.187L346.588 165.442C345.459 166.093 345.459 167.149 346.588 167.801L360.887 176.056C362.015 176.707 363.844 176.707 364.972 176.056L379.272 167.801C380.4 167.149 380.4 166.093 379.272 165.442Z" stroke="#57606A" stroke-width="2" stroke-linecap="round" stroke-linejoin="round"/>
<path opacity="0.7" d="M365.616 170.785L370.143 168.172C370.341 168.058 370.485 167.916 370.56 167.761C370.635 167.606 370.639 167.443 370.571 167.29L368.985 163.761C368.917 163.607 368.78 163.467 368.586 163.356C368.393 163.244 368.151 163.165 367.885 163.126L361.772 162.21C361.506 162.17 361.224 162.173 360.956 162.216C360.688 162.26 360.442 162.343 360.243 162.457L355.717 165.07C355.518 165.185 355.374 165.327 355.299 165.482C355.224 165.637 355.22 165.799 355.288 165.953L356.874 169.482C356.942 169.636 357.08 169.775 357.273 169.887C357.466 169.998 357.708 170.078 357.974 170.117L364.087 171.033C364.354 171.072 364.635 171.07 364.903 171.026C365.172 170.983 365.418 170.9 365.616 170.785Z" stroke="#57606A" stroke-width="2" stroke-linecap="round" stroke-linejoin="round"/>
<path opacity="0.7" d="M360.809 162.131L362.93 166.621L370.708 167.846" stroke="#57606A" stroke-width="2" stroke-linecap="round" stroke-linejoin="round"/>
<path opacity="0.7" d="M357.273 169.887L362.93 166.621" stroke="#57606A" stroke-width="2" stroke-linecap="round" stroke-linejoin="round"/>
</g>
</g>
<g filter="url(#filter4_d_818_364)">
<rect width="91.4456" height="26.9438" rx="5" transform="matrix(0.866044 0.499967 -0.866044 0.499967 291.34 81)" fill="white"/>
<path opacity="0.7" d="M281.845 97.5877L290.938 92.3381L292.471 93.223L291.377 93.8543L291.468 93.9065C291.709 93.8601 291.993 93.827 292.32 93.8071C292.65 93.7856 293.005 93.8096 293.384 93.8792C293.766 93.9471 294.15 94.0929 294.538 94.3167C295.049 94.6116 295.379 94.953 295.528 95.3407C295.683 95.7285 295.627 96.1386 295.36 96.5711C295.099 97.0036 294.601 97.432 293.866 97.8562C293.14 98.2754 292.404 98.5629 291.657 98.7187C290.911 98.8745 290.199 98.9109 289.522 98.8281C288.844 98.7452 288.246 98.5538 287.726 98.2539C287.347 98.0352 287.096 97.8173 286.973 97.6002C286.849 97.3831 286.801 97.1793 286.826 96.9887C286.858 96.7981 286.913 96.6324 286.99 96.4916L286.925 96.4543L283.403 98.4875L281.845 97.5877ZM289.16 95.1295C288.732 95.3764 288.418 95.6274 288.217 95.8826C288.019 96.1395 287.944 96.3864 287.993 96.6233C288.048 96.8603 288.24 97.0741 288.57 97.2646C288.915 97.4635 289.295 97.577 289.711 97.6051C290.13 97.6317 290.559 97.5861 290.999 97.4684C291.443 97.3508 291.873 97.1726 292.286 96.934C292.696 96.6971 293.002 96.4526 293.203 96.2008C293.404 95.9489 293.479 95.7036 293.427 95.465C293.375 95.2264 293.176 95.0068 292.828 94.8063C292.495 94.6141 292.125 94.5014 291.718 94.4683C291.31 94.4351 290.888 94.4749 290.452 94.5876C290.018 94.7019 289.588 94.8826 289.16 95.1295ZM291.903 100.531L298.516 96.7128L300.027 97.5853L298.925 98.2216L298.994 98.2614C299.496 98.1106 299.997 98.06 300.497 98.1097C301.002 98.1594 301.444 98.2937 301.823 98.5124C301.909 98.5621 302.001 98.6201 302.098 98.6864C302.202 98.7527 302.282 98.8107 302.34 98.8604L300.906 99.6881C300.863 99.6367 300.778 99.5647 300.652 99.4719C300.531 99.3791 300.405 99.2945 300.273 99.2183C299.989 99.0543 299.672 98.9424 299.321 98.8828C298.977 98.8231 298.632 98.8181 298.288 98.8678C297.944 98.9176 297.631 99.0236 297.349 99.186L293.461 101.431L291.903 100.531ZM299.193 104.889C298.547 104.516 298.13 104.111 297.94 103.673C297.751 103.236 297.781 102.794 298.031 102.348C298.283 101.904 298.751 101.485 299.434 101.091C300.117 100.696 300.845 100.425 301.617 100.278C302.392 100.132 303.159 100.114 303.916 100.223C304.674 100.333 305.376 100.574 306.022 100.946C306.668 101.319 307.085 101.724 307.275 102.162C307.464 102.599 307.431 103.041 307.176 103.487C306.923 103.934 306.455 104.355 305.772 104.749C305.089 105.144 304.361 105.413 303.589 105.557C302.82 105.703 302.056 105.721 301.299 105.612C300.541 105.503 299.839 105.262 299.193 104.889ZM300.45 104.173C300.801 104.375 301.19 104.488 301.617 104.513C302.048 104.537 302.484 104.487 302.926 104.364C303.371 104.243 303.794 104.067 304.196 103.835C304.601 103.601 304.908 103.356 305.118 103.099C305.333 102.842 305.421 102.589 305.38 102.341C305.34 102.092 305.145 101.867 304.795 101.665C304.436 101.458 304.04 101.342 303.606 101.317C303.176 101.294 302.737 101.343 302.289 101.466C301.847 101.589 301.424 101.767 301.019 102C300.617 102.232 300.31 102.476 300.097 102.731C299.888 102.988 299.803 103.241 299.843 103.489C299.889 103.738 300.092 103.966 300.45 104.173ZM306.152 108.891C305.633 108.591 305.301 108.246 305.158 107.855C305.014 107.464 305.077 107.053 305.347 106.622C305.617 106.191 306.115 105.766 306.841 105.347C307.576 104.922 308.316 104.634 309.063 104.482C309.815 104.329 310.527 104.298 311.198 104.387C311.873 104.475 312.464 104.666 312.972 104.959C313.36 105.183 313.612 105.405 313.73 105.625C313.851 105.844 313.892 106.048 313.855 106.239C313.82 106.428 313.763 106.592 313.683 106.731L313.747 106.768L317.045 104.864L318.608 105.767L309.79 110.857L308.258 109.972L309.3 109.371L309.205 109.316C308.964 109.363 308.677 109.394 308.344 109.411C308.014 109.426 307.661 109.397 307.285 109.326C306.909 109.255 306.531 109.11 306.152 108.891ZM307.866 108.404C308.196 108.595 308.566 108.706 308.977 108.737C309.39 108.767 309.818 108.724 310.26 108.608C310.702 108.492 311.137 108.31 311.564 108.063C311.992 107.817 312.303 107.567 312.499 107.315C312.697 107.065 312.767 106.822 312.71 106.587C312.655 106.353 312.46 106.14 312.124 105.946C311.777 105.745 311.396 105.63 310.983 105.6C310.57 105.57 310.145 105.613 309.709 105.729C309.272 105.845 308.849 106.022 308.438 106.259C308.025 106.498 307.715 106.744 307.508 107C307.308 107.255 307.23 107.503 307.276 107.745C307.328 107.987 307.524 108.207 307.866 108.404ZM318.448 112.644L322.28 110.432L323.839 111.331L317.225 115.149L315.714 114.277L316.889 113.598L316.82 113.559C316.301 113.686 315.753 113.719 315.176 113.658C314.602 113.598 314.066 113.425 313.57 113.138C313.136 112.888 312.849 112.612 312.709 112.308C312.574 112.005 312.598 111.693 312.782 111.371C312.968 111.048 313.326 110.734 313.854 110.429L318.065 107.998L319.623 108.898L315.654 111.19C315.235 111.432 315.016 111.69 314.999 111.965C314.982 112.24 315.16 112.486 315.533 112.701C315.763 112.834 316.041 112.93 316.368 112.989C316.696 113.049 317.039 113.055 317.397 113.007C317.762 112.959 318.112 112.838 318.448 112.644ZM321.584 117.815C320.923 117.433 320.501 117.022 320.318 116.582C320.137 116.143 320.174 115.702 320.43 115.259C320.691 114.817 321.156 114.403 321.825 114.017C322.496 113.629 323.218 113.361 323.99 113.214C324.765 113.065 325.532 113.043 326.29 113.149C327.053 113.255 327.758 113.495 328.404 113.867C328.94 114.177 329.316 114.509 329.532 114.862C329.753 115.215 329.807 115.566 329.695 115.916C329.586 116.264 329.311 116.585 328.869 116.88L327.379 116.02C327.637 115.801 327.759 115.565 327.745 115.312C327.736 115.058 327.544 114.823 327.168 114.606C326.849 114.422 326.483 114.31 326.07 114.27C325.659 114.229 325.227 114.261 324.774 114.367C324.323 114.475 323.876 114.657 323.431 114.914C322.98 115.174 322.658 115.436 322.466 115.699C322.277 115.961 322.214 116.211 322.277 116.45C322.346 116.689 322.542 116.902 322.867 117.089C323.096 117.221 323.345 117.315 323.611 117.37C323.884 117.424 324.165 117.439 324.455 117.414C324.745 117.39 325.032 117.322 325.316 117.211L326.806 118.071C326.301 118.319 325.748 118.479 325.149 118.55C324.552 118.62 323.946 118.595 323.332 118.476C322.72 118.355 322.138 118.134 321.584 117.815ZM335.741 118.203L334.536 118.899L330.734 116.704L331.94 116.008L335.741 118.203ZM334.463 115.635L336.021 116.535L329.813 120.119C329.603 120.24 329.474 120.351 329.425 120.452C329.382 120.554 329.394 120.646 329.46 120.731C329.526 120.815 329.623 120.895 329.752 120.969C329.85 121.026 329.946 121.073 330.041 121.111C330.138 121.151 330.214 121.18 330.269 121.198L329.313 122.053C329.201 122.022 329.051 121.971 328.861 121.902C328.675 121.834 328.468 121.738 328.241 121.613C327.839 121.395 327.546 121.158 327.363 120.902C327.182 120.646 327.137 120.385 327.229 120.119C327.324 119.856 327.579 119.606 327.996 119.369L334.463 115.635ZM340.436 125.337L344.268 123.125L345.826 124.025L339.213 127.843L337.702 126.97L338.877 126.292L338.808 126.252C338.289 126.38 337.74 126.413 337.163 126.351C336.589 126.292 336.054 126.119 335.557 125.832C335.124 125.582 334.837 125.305 334.696 125.002C334.561 124.699 334.586 124.386 334.769 124.065C334.956 123.742 335.313 123.428 335.842 123.123L340.052 120.692L341.611 121.592L337.641 123.883C337.222 124.125 337.004 124.384 336.987 124.659C336.97 124.934 337.148 125.179 337.521 125.395C337.75 125.527 338.029 125.623 338.356 125.683C338.683 125.743 339.026 125.748 339.385 125.7C339.75 125.652 340.1 125.531 340.436 125.337ZM340.816 128.768L347.429 124.95L348.94 125.823L347.838 126.459L347.907 126.499C348.409 126.348 348.91 126.297 349.41 126.347C349.915 126.397 350.357 126.531 350.736 126.75C350.822 126.8 350.914 126.858 351.011 126.924C351.115 126.99 351.195 127.048 351.252 127.098L349.819 127.926C349.776 127.874 349.691 127.802 349.565 127.709C349.444 127.616 349.318 127.532 349.186 127.456C348.902 127.292 348.584 127.18 348.234 127.12C347.89 127.061 347.545 127.056 347.201 127.105C346.856 127.155 346.544 127.261 346.262 127.423L342.374 129.668L340.816 128.768ZM355.999 127.353L347.181 132.443L345.623 131.543L354.441 126.453L355.999 127.353Z" fill="#57606A"/>
</g>
<path d="M238.105 277.625C240.642 277.803 242.193 279.447 242.222 281.99C243.896 279.044 246.744 276.358 249.783 274.86C247.247 274.682 245.696 273.037 245.667 270.494C243.993 273.44 241.144 276.126 238.105 277.625Z" fill="#FF5D49" fill-opacity="0.51"/>
<path d="M274.623 307.933C277.035 308.738 278.126 310.718 277.519 313.187C279.876 310.753 283.305 308.863 286.622 308.171C284.21 307.365 283.119 305.385 283.726 302.916C281.369 305.351 277.94 307.24 274.623 307.933Z" fill="#0969DA" fill-opacity="0.52"/>
<path d="M156.16 240.06C157.906 241.909 157.933 244.169 156.232 246.06C159.459 245.026 163.374 244.979 166.625 245.935C164.879 244.086 164.852 241.826 166.553 239.935C163.326 240.969 159.411 241.016 156.16 240.06Z" fill="#935AFF" fill-opacity="0.52"/>
<path d="M522.588 42.9248C523.997 45.0419 523.642 47.274 521.647 48.8505C525.002 48.3763 528.869 48.9906 531.911 50.4812C530.503 48.3642 530.858 46.132 532.853 44.5556C529.498 45.0299 525.631 44.4155 522.588 42.9248Z" fill="#FF5D49" fill-opacity="0.44"/>
<g filter="url(#filter5_d_818_364)">
<rect width="69.4007" height="26.9438" rx="5" transform="matrix(0.866044 0.499967 -0.866044 0.499967 470.336 68)" fill="white"/>
<path opacity="0.7" d="M464.595 83.2457L473.413 78.1551L474.971 79.0549L471.673 80.9589L471.738 80.9962C471.979 80.9498 472.263 80.9167 472.59 80.8968C472.92 80.8752 473.275 80.8993 473.654 80.9689C474.036 81.0368 474.42 81.1826 474.808 81.4063C475.319 81.7013 475.649 82.0427 475.798 82.4304C475.953 82.8182 475.897 83.2283 475.63 83.6608C475.369 84.0933 474.871 84.5217 474.136 84.9459C473.41 85.3651 472.674 85.6526 471.927 85.8084C471.181 85.9642 470.469 86.0006 469.792 85.9178C469.114 85.8349 468.516 85.6435 467.996 85.3436C467.617 85.1249 467.366 84.9069 467.243 84.6899C467.119 84.4728 467.071 84.269 467.096 84.0784C467.128 83.8878 467.182 83.7221 467.26 83.5813L467.17 83.5291L466.128 84.1306L464.595 83.2457ZM469.43 82.2191C469.002 82.4661 468.688 82.7171 468.487 82.9723C468.289 83.2291 468.214 83.476 468.263 83.713C468.318 83.95 468.51 84.1637 468.84 84.3543C469.185 84.5532 469.565 84.6667 469.981 84.6948C470.4 84.7214 470.829 84.6758 471.269 84.5581C471.713 84.4405 472.143 84.2623 472.556 84.0237C472.966 83.7868 473.272 83.5423 473.473 83.2905C473.674 83.0386 473.749 82.7933 473.697 82.5547C473.645 82.3161 473.446 82.0965 473.098 81.896C472.765 81.7038 472.395 81.5911 471.988 81.558C471.58 81.5248 471.158 81.5646 470.722 81.6773C470.288 81.7916 469.858 81.9722 469.43 82.2191ZM472.163 87.6148L478.776 83.7969L480.288 84.6694L479.185 85.3057L479.254 85.3455C479.757 85.1947 480.258 85.1441 480.757 85.1938C481.262 85.2435 481.704 85.3778 482.083 85.5965C482.169 85.6462 482.261 85.7042 482.359 85.7705C482.462 85.8368 482.542 85.8948 482.6 85.9445L481.166 86.7722C481.123 86.7208 481.038 86.6488 480.912 86.556C480.791 86.4632 480.665 86.3786 480.533 86.3024C480.249 86.1384 479.932 86.0265 479.582 85.9669C479.237 85.9072 478.893 85.9022 478.548 85.9519C478.204 86.0017 477.891 86.1077 477.61 86.2701L473.722 88.5146L472.163 87.6148ZM478.621 91.4974C478.202 91.2555 477.9 90.9945 477.713 90.7144C477.532 90.4344 477.492 90.1527 477.592 89.8693C477.696 89.5876 477.964 89.3216 478.398 89.0714C478.771 88.856 479.148 88.7176 479.53 88.6563C479.912 88.595 480.295 88.5909 480.68 88.6439C481.064 88.6969 481.443 88.7881 481.816 88.9173C482.195 89.0466 482.563 89.194 482.918 89.3598C483.346 89.5603 483.696 89.721 483.969 89.842C484.245 89.9613 484.471 90.0325 484.649 90.0557C484.833 90.0789 485 90.0474 485.149 89.9613L485.175 89.9464C485.499 89.7591 485.654 89.5586 485.64 89.3448C485.625 89.1311 485.437 88.9198 485.076 88.711C484.694 88.4906 484.308 88.3638 483.917 88.3307C483.53 88.2992 483.184 88.3266 482.88 88.4127L481.631 87.4533C482.148 87.2876 482.673 87.203 483.207 87.1997C483.744 87.1948 484.27 87.2635 484.787 87.406C485.307 87.5469 485.797 87.7507 486.26 88.0175C486.578 88.2014 486.858 88.4061 487.099 88.6315C487.34 88.8568 487.505 89.0946 487.594 89.3448C487.686 89.5934 487.665 89.8478 487.53 90.1079C487.398 90.3697 487.112 90.6274 486.673 90.881L482.247 93.4362L480.748 92.5712L481.657 92.0467L481.605 92.0169C481.327 92.0683 481.021 92.0906 480.688 92.084C480.361 92.0774 480.019 92.0277 479.663 91.9349C479.313 91.8421 478.966 91.6962 478.621 91.4974ZM480.171 91.0699C480.484 91.2505 480.817 91.3715 481.17 91.4328C481.526 91.4924 481.869 91.4982 482.199 91.4502C482.532 91.4038 482.821 91.3101 483.065 91.1693L483.844 90.7194C483.755 90.7144 483.635 90.6879 483.482 90.6399C483.333 90.5935 483.174 90.5363 483.005 90.4683C482.835 90.4004 482.67 90.3316 482.509 90.262C482.349 90.1924 482.209 90.132 482.092 90.0806C481.828 89.9646 481.568 89.8743 481.312 89.8096C481.057 89.745 480.812 89.7193 480.576 89.7326C480.344 89.7442 480.127 89.808 479.926 89.924C479.639 90.0897 479.527 90.2753 479.59 90.4808C479.653 90.6863 479.847 90.8826 480.171 91.0699ZM489.248 93.0037L485.373 95.2408L483.814 94.341L490.427 90.523L491.917 91.3831L490.793 92.0318L490.871 92.0765C491.393 91.9506 491.93 91.9208 492.481 91.9871C493.035 92.055 493.559 92.2315 494.053 92.5165C494.509 92.78 494.809 93.0658 494.953 93.374C495.099 93.6839 495.08 93.9996 494.897 94.3211C494.716 94.6442 494.36 94.9574 493.829 95.2606L489.618 97.6916L488.059 96.7918L492.029 94.5C492.471 94.2448 492.702 93.9789 492.722 93.7022C492.745 93.4271 492.556 93.1735 492.154 92.9415C491.881 92.7841 491.578 92.6789 491.246 92.6259C490.918 92.5728 490.582 92.5762 490.238 92.6358C489.896 92.6971 489.566 92.8198 489.248 93.0037ZM493.54 100.09C493.021 99.7903 492.689 99.4448 492.546 99.0537C492.402 98.6626 492.465 98.2517 492.735 97.8208C493.005 97.39 493.503 96.965 494.229 96.5457C494.964 96.1215 495.705 95.8332 496.451 95.6807C497.203 95.5283 497.915 95.4968 498.587 95.5863C499.261 95.6741 499.852 95.8647 500.361 96.158C500.748 96.3817 501.001 96.6037 501.118 96.8241C501.239 97.0428 501.28 97.2475 501.243 97.4381C501.209 97.627 501.151 97.791 501.071 97.9302L501.136 97.9675L504.434 96.0635L505.997 96.9658L497.179 102.056L495.646 101.171L496.688 100.57L496.593 100.515C496.352 100.562 496.065 100.593 495.732 100.61C495.402 100.625 495.049 100.596 494.673 100.525C494.297 100.454 493.919 100.309 493.54 100.09ZM495.254 99.603C495.584 99.7936 495.954 99.9046 496.365 99.9361C496.778 99.9659 497.206 99.9229 497.648 99.8069C498.09 99.6909 498.525 99.5094 498.953 99.2625C499.38 99.0156 499.692 98.7662 499.887 98.5143C500.085 98.2641 500.155 98.0214 500.098 97.786C500.043 97.5524 499.848 97.3386 499.512 97.1448C499.165 96.9442 498.785 96.8291 498.371 96.7993C497.958 96.7694 497.533 96.8125 497.097 96.9285C496.661 97.0445 496.237 97.221 495.827 97.4579C495.413 97.6966 495.103 97.9435 494.897 98.1987C494.696 98.4539 494.618 98.7024 494.664 98.9444C494.716 99.1863 494.912 99.4059 495.254 99.603ZM508.932 103.224L507.356 102.493C507.459 102.387 507.524 102.269 507.55 102.138C507.579 102.009 507.548 101.873 507.459 101.733C507.37 101.592 507.205 101.452 506.964 101.313C506.64 101.125 506.297 101.008 505.935 100.962C505.576 100.917 505.287 100.96 505.065 101.091C504.87 101.201 504.784 101.332 504.807 101.484C504.833 101.638 504.975 101.835 505.233 102.073L506.12 102.864C506.611 103.303 506.862 103.695 506.874 104.039C506.888 104.386 506.66 104.696 506.189 104.971C505.77 105.21 505.281 105.352 504.721 105.396C504.167 105.441 503.589 105.392 502.986 105.25C502.383 105.107 501.806 104.877 501.255 104.559C500.446 104.091 499.963 103.618 499.808 103.137C499.656 102.655 499.837 102.211 500.351 101.805L502.017 102.598C501.787 102.81 501.709 103.024 501.78 103.241C501.852 103.458 502.067 103.671 502.426 103.878C502.796 104.091 503.17 104.219 503.546 104.261C503.924 104.304 504.226 104.261 504.45 104.131C504.639 104.022 504.722 103.889 504.7 103.734C504.679 103.579 504.55 103.396 504.312 103.182L503.421 102.394C502.918 101.951 502.672 101.552 502.68 101.196C502.692 100.838 502.94 100.52 503.425 100.244C503.83 100.007 504.293 99.8667 504.816 99.8236C505.344 99.7806 505.891 99.8278 506.456 99.9653C507.027 100.103 507.577 100.324 508.105 100.629C508.88 101.076 509.325 101.524 509.44 101.971C509.558 102.42 509.388 102.838 508.932 103.224Z" fill="#57606A"/>
</g>
</g>
<defs>
<filter id="filter0_d_818_364" x="375" y="54" width="322.844" height="203.285" filterUnits="userSpaceOnUse" color-interpolation-filters="sRGB">
<feFlood flood-opacity="0" result="BackgroundImageFix"/>
<feColorMatrix in="SourceAlpha" type="matrix" values="0 0 0 0 0 0 0 0 0 0 0 0 0 0 0 0 0 0 127 0" result="hardAlpha"/>
<feOffset dx="9" dy="6"/>
<feGaussianBlur stdDeviation="10"/>
<feComposite in2="hardAlpha" operator="out"/>
<feColorMatrix type="matrix" values="0 0 0 0 1 0 0 0 0 0.67451 0 0 0 0 0.635294 0 0 0 0.4 0"/>
<feBlend mode="normal" in2="BackgroundImageFix" result="effect1_dropShadow_818_364"/>
<feBlend mode="normal" in="SourceGraphic" in2="effect1_dropShadow_818_364" result="shape"/>
</filter>
<filter id="filter1_d_818_364" x="536.539" y="154.465" width="148.973" height="111.363" filterUnits="userSpaceOnUse" color-interpolation-filters="sRGB">
<feFlood flood-opacity="0" result="BackgroundImageFix"/>
<feColorMatrix in="SourceAlpha" type="matrix" values="0 0 0 0 0 0 0 0 0 0 0 0 0 0 0 0 0 0 127 0" result="hardAlpha"/>
<feOffset dx="9" dy="6"/>
<feGaussianBlur stdDeviation="15"/>
<feComposite in2="hardAlpha" operator="out"/>
<feColorMatrix type="matrix" values="0 0 0 0 0 0 0 0 0 0 0 0 0 0 0 0 0 0 0.25 0"/>
<feBlend mode="normal" in2="BackgroundImageFix" result="effect1_dropShadow_818_364"/>
<feBlend mode="normal" in="SourceGraphic" in2="effect1_dropShadow_818_364" result="shape"/>
</filter>
<filter id="filter2_d_818_364" x="307" y="204" width="322.844" height="203.285" filterUnits="userSpaceOnUse" color-interpolation-filters="sRGB">
<feFlood flood-opacity="0" result="BackgroundImageFix"/>
<feColorMatrix in="SourceAlpha" type="matrix" values="0 0 0 0 0 0 0 0 0 0 0 0 0 0 0 0 0 0 127 0" result="hardAlpha"/>
<feOffset dx="9" dy="5"/>
<feGaussianBlur stdDeviation="10"/>
<feComposite in2="hardAlpha" operator="out"/>
<feColorMatrix type="matrix" values="0 0 0 0 0.498039 0 0 0 0 0.694118 0 0 0 0 0.921569 0 0 0 0.4 0"/>
<feBlend mode="normal" in2="BackgroundImageFix" result="effect1_dropShadow_818_364"/>
<feBlend mode="normal" in="SourceGraphic" in2="effect1_dropShadow_818_364" result="shape"/>
</filter>
<filter id="filter3_d_818_364" x="190" y="82" width="322.844" height="203.285" filterUnits="userSpaceOnUse" color-interpolation-filters="sRGB">
<feFlood flood-opacity="0" result="BackgroundImageFix"/>
<feColorMatrix in="SourceAlpha" type="matrix" values="0 0 0 0 0 0 0 0 0 0 0 0 0 0 0 0 0 0 127 0" result="hardAlpha"/>
<feOffset dx="9" dy="6"/>
<feGaussianBlur stdDeviation="10"/>
<feComposite in2="hardAlpha" operator="out"/>
<feColorMatrix type="matrix" values="0 0 0 0 0.776471 0 0 0 0 0.662745 0 0 0 0 1 0 0 0 0.4 0"/>
<feBlend mode="normal" in2="BackgroundImageFix" result="effect1_dropShadow_818_364"/>
<feBlend mode="normal" in="SourceGraphic" in2="effect1_dropShadow_818_364" result="shape"/>
</filter>
<filter id="filter4_d_818_364" x="270.543" y="82.4648" width="105.457" height="64.2617" filterUnits="userSpaceOnUse" color-interpolation-filters="sRGB">
<feFlood flood-opacity="0" result="BackgroundImageFix"/>
<feColorMatrix in="SourceAlpha" type="matrix" values="0 0 0 0 0 0 0 0 0 0 0 0 0 0 0 0 0 0 127 0" result="hardAlpha"/>
<feOffset dx="4" dy="4"/>
<feGaussianBlur stdDeviation="2"/>
<feComposite in2="hardAlpha" operator="out"/>
<feColorMatrix type="matrix" values="0 0 0 0 0 0 0 0 0 0 0 0 0 0 0 0 0 0 0.25 0"/>
<feBlend mode="normal" in2="BackgroundImageFix" result="effect1_dropShadow_818_364"/>
<feBlend mode="normal" in="SourceGraphic" in2="effect1_dropShadow_818_364" result="shape"/>
</filter>
<filter id="filter5_d_818_364" x="449.539" y="69.4648" width="86.3633" height="53.2402" filterUnits="userSpaceOnUse" color-interpolation-filters="sRGB">
<feFlood flood-opacity="0" result="BackgroundImageFix"/>
<feColorMatrix in="SourceAlpha" type="matrix" values="0 0 0 0 0 0 0 0 0 0 0 0 0 0 0 0 0 0 127 0" result="hardAlpha"/>
<feOffset dx="4" dy="4"/>
<feGaussianBlur stdDeviation="2"/>
<feComposite in2="hardAlpha" operator="out"/>
<feColorMatrix type="matrix" values="0 0 0 0 0 0 0 0 0 0 0 0 0 0 0 0 0 0 0.25 0"/>
<feBlend mode="normal" in2="BackgroundImageFix" result="effect1_dropShadow_818_364"/>
<feBlend mode="normal" in="SourceGraphic" in2="effect1_dropShadow_818_364" result="shape"/>
</filter>
<clipPath id="clip0_818_364">
<rect width="733" height="342" fill="white"/>
</clipPath>
<clipPath id="clip1_818_364">
<rect width="163.296" height="163.296" rx="5" transform="matrix(0.866044 0.499967 -0.866044 0.499967 527.422 68)" fill="white"/>
</clipPath>
<clipPath id="clip2_818_364">
<rect width="163.296" height="163.296" rx="5" transform="matrix(0.866044 0.499967 -0.866044 0.499967 459.422 219)" fill="white"/>
</clipPath>
<clipPath id="clip3_818_364">
<rect width="163.296" height="163.296" rx="5" transform="matrix(0.866044 0.499967 -0.866044 0.499967 342.422 96)" fill="white"/>
</clipPath>
</defs>
</svg>
